<?xml version="1.0"?>
<svg xmlns="http://www.w3.org/2000/svg" xmlns:xlink="http://www.w3.org/1999/xlink" xmlns:svgjs="http://svgjs.com/svgjs" version="1.1" width="512" height="512" x="0" y="0" viewBox="0 0 512 512" style="enable-background:new 0 0 512 512" xml:space="preserve" class=""><g><g xmlns="http://www.w3.org/2000/svg"><path d="m400 8c-34.4 0-69 17.24-94.91 47.29a170.043 170.043 0 0 0 -38.21 80.71h-70.88a28.031 28.031 0 0 0 -28 28v8a28.031 28.031 0 0 0 28 28h4v128a8 8 0 0 0 -8 8v24a8 8 0 0 0 8 8v21.5l-68.19 98.5h-19.81a8 8 0 0 0 0 16h48a8 8 0 0 0 0-16h-8.73l48.73-70.39v70.39h-8a8 8 0 0 0 0 16h64a8 8 0 0 0 0-16h-8v-70.39l48.73 70.39h-8.73a8 8 0 0 0 0 16h48a8 8 0 0 0 0-16h-19.81l-68.19-98.5v-21.5a8 8 0 0 0 8-8v-24a8 8 0 0 0 -8-8v-128h18.88a170.043 170.043 0 0 0 38.21 80.71c25.91 30.05 60.51 47.29 94.91 47.29a8 8 0 0 0 8-8v-304a8 8 0 0 0 -8-8zm-168 480h-16v-120h16zm8-136h-32v-8h32zm-24-24v-128h16v128zm48-144h-68a12.01 12.01 0 0 1 -12-12v-8a12.01 12.01 0 0 1 12-12h68zm128 127.64c-27.09-2.46-53.97-17.23-74.79-41.38a152.4 152.4 0 0 1 -29.74-53.57 118.468 118.468 0 0 0 19.51 14.71c23.58 14.39 54.18 23.11 85.02 24.41zm0-71.82c-27.96-1.28-55.53-9.16-76.68-22.08-19.42-11.85-31.39-26.44-34.5-41.74h55.18a8 8 0 0 0 0-16h-55.18c3.11-15.3 15.08-29.89 34.5-41.74 21.15-12.92 48.72-20.8 76.68-22.08zm0-159.63c-30.84 1.3-61.44 10.02-85.02 24.41a118.468 118.468 0 0 0 -19.51 14.71 152.4 152.4 0 0 1 29.74-53.57c20.82-24.15 47.7-38.92 74.79-41.38z" fill="#ffffff" data-original="#000000" style=""/><path d="m368 176h8a8 8 0 0 0 0-16h-8a8 8 0 0 0 0 16z" fill="#ffffff" data-original="#000000" style=""/></g></g></svg>
